<?xml version="1.0" encoding="UTF-8"?> <svg xmlns="http://www.w3.org/2000/svg" id="Ebene_1" viewBox="0 0 215.04 155.79"><defs><style>.cls-1{fill:#d1e19b;}.cls-2{fill:#1a1a18;}</style></defs><path class="cls-1" d="m204.87,19.51c9.53,16.68,30.44,81.04-43.45,125.14-73.89,44.1-148.97-56.01-63.16-69.12,31.61-4.83,13.11-61.97,39.33-71.51,26.22-9.54,57.75-1.19,67.28,15.49"></path><path class="cls-2" d="m94.78,105.36c.03-.16.04-.34.04-.54s-.03-.46-.09-.78c-.06-.32-.16-.65-.29-.97-.13-.32-.29-.59-.48-.81-.19-.22-.43-.33-.71-.33h-12.5c-.7,0-1.06.55-1.06,1.66v1.27c0,1.13.35,1.69,1.06,1.69h7.13l-8.46,12.47c-.18.26-.28.48-.3.66-.02.18-.03.34-.03.48,0,.2.03.46.09.79.06.32.16.64.29.97.13.32.29.59.48.82.19.22.43.33.71.33h13.11c.71,0,1.06-.55,1.06-1.66v-1.27c0-1.13-.35-1.69-1.06-1.69h-7.73l8.46-12.47c.16-.24.26-.44.29-.6Z"></path><path class="cls-2" d="m71.49,102.16c-.33-.2-.88-.3-1.65-.3h-.54c-.75,0-1.29.1-1.63.3-.34.2-.51.48-.51.85v8.61c0,.54.01,1.1.05,1.66.03.56.08,1.04.14,1.42l-.12.03c-.18-.36-.43-.82-.76-1.37-.32-.55-.65-1.06-1-1.52l-6.19-8.82c-.22-.34-.44-.59-.66-.74-.22-.15-.48-.26-.77-.32-.29-.06-.67-.09-1.13-.09h-.84c-.75,0-1.29.1-1.63.29-.34.19-.51.48-.51.86v18.97c0,.36.17.65.51.85.34.2.88.3,1.63.3h.54c.77,0,1.31-.1,1.65-.3.33-.2.5-.48.5-.85v-8.64c0-.56-.02-1.13-.05-1.69-.03-.56-.07-1.04-.14-1.42l.12-.03c.18.36.43.82.76,1.36.32.54.65,1.07,1,1.57l6.31,8.94c.2.3.41.53.62.68.21.15.46.25.76.3.29.05.65.08,1.07.08h.85c.77,0,1.31-.1,1.65-.3.33-.2.5-.48.5-.85v-18.97c0-.36-.17-.64-.5-.85Z"></path><path class="cls-2" d="m21.41,121.46l-5.61-9.35,5.19-8.44c.12-.22.22-.42.29-.6.07-.18.11-.33.11-.45,0-.26-.15-.45-.44-.57-.29-.12-.78-.18-1.46-.18h-1.24c-.7,0-1.22.08-1.54.24-.32.16-.59.43-.82.81l-4.5,7.7h-.12v-7.61c0-.36-.17-.64-.5-.85-.33-.2-.88-.3-1.65-.3h-.88c-.74,0-1.29.1-1.63.3-.34.2-.51.48-.51.85v18.97c0,.36.17.65.51.85.34.2.89.3,1.63.3h.88c.77,0,1.31-.1,1.65-.3.33-.2.5-.48.5-.85v-7.82h.12l4.71,8.03c.18.34.44.58.79.73.34.14.88.21,1.6.21h1.39c.64,0,1.12-.05,1.43-.15.31-.1.47-.28.47-.54,0-.12-.03-.26-.09-.42-.06-.16-.15-.34-.27-.54Z"></path><path class="cls-2" d="m36.45,101.68c-3.22,0-5.68.92-7.38,2.76-1.7,1.84-2.55,4.53-2.55,8.05s.85,6.21,2.55,8.05c1.7,1.84,4.16,2.76,7.38,2.76s5.68-.92,7.37-2.76c1.69-1.84,2.54-4.52,2.54-8.05s-.85-6.21-2.54-8.05c-1.69-1.84-4.15-2.76-7.37-2.76Zm3.43,15.46c-.76,1.03-1.9,1.54-3.43,1.54s-2.68-.51-3.44-1.54c-.77-1.03-1.15-2.58-1.15-4.65s.38-3.65,1.15-4.67c.77-1.02,1.91-1.52,3.44-1.52s2.67.51,3.43,1.52c.76,1.02,1.13,2.57,1.13,4.67s-.38,3.62-1.13,4.65Z"></path><path class="cls-2" d="m130.67,101.92h-6.31c-.97,0-1.45.4-1.45,1.21v18.84c0,.36.17.65.51.85.34.2.89.3,1.63.3h.88c.76,0,1.31-.1,1.65-.3.33-.2.5-.48.5-.85v-6.16h2.6c2.5,0,4.37-.58,5.62-1.75,1.25-1.17,1.87-2.91,1.87-5.23s-.62-4.02-1.87-5.18c-1.25-1.16-3.12-1.74-5.62-1.74Zm1.71,8.73c-.35.36-.91.54-1.68.54h-2.63v-4.65h2.63c.77,0,1.32.18,1.68.54.35.36.53.96.53,1.78s-.18,1.42-.53,1.78Z"></path><path class="cls-2" d="m178.26,118.44h-7.34v-3.9h6.52c.7,0,1.06-.56,1.06-1.69v-1.24c0-1.13-.35-1.69-1.06-1.69h-6.52v-3.38h7.31c.72,0,1.09-.56,1.09-1.69v-1.27c0-1.11-.36-1.66-1.09-1.66h-11.02c-.97,0-1.45.4-1.45,1.21v18.72c0,.8.48,1.21,1.45,1.21h11.05c.72,0,1.09-.55,1.09-1.66v-1.27c0-1.13-.36-1.69-1.09-1.69Z"></path><path class="cls-2" d="m158.21,101.92h-13.98c-.71,0-1.06.55-1.06,1.66v1.27c0,1.13.35,1.69,1.06,1.69h4.41v15.43c0,.36.17.65.51.85.34.2.88.3,1.63.3h.88c.77,0,1.31-.1,1.65-.3.33-.2.5-.48.5-.85v-15.43h4.41c.7,0,1.06-.56,1.06-1.69v-1.27c0-1.11-.35-1.66-1.06-1.66Z"></path><path class="cls-2" d="m114.39,118.44h-7.34v-3.9h6.52c.7,0,1.06-.56,1.06-1.69v-1.24c0-1.13-.35-1.69-1.06-1.69h-6.52v-3.38h7.31c.73,0,1.09-.56,1.09-1.69v-1.27c0-1.11-.36-1.66-1.09-1.66h-11.02c-.97,0-1.45.4-1.45,1.21v18.72c0,.8.48,1.21,1.45,1.21h11.05c.72,0,1.09-.55,1.09-1.66v-1.27c0-1.13-.36-1.69-1.09-1.69Z"></path><path class="cls-2" d="m128.57,74.83c1.48-3.73,2.22-8.19,2.22-13.37,0-7.71-1.71-13.77-5.13-18.17-3.42-4.41-8.15-6.61-14.2-6.61-1.54,0-2.97.15-4.3.46-1.33.31-2.51.73-3.56,1.25-1.05.52-2,1.13-2.87,1.8v-21.46c0-.86-.39-1.53-1.16-1.99-.77-.46-2.02-.69-3.75-.69h-2.03c-1.73,0-2.98.23-3.75.69-.77.46-1.16,1.12-1.16,1.99v64.47c0,.86.37,1.53,1.11,1.99.74.46,1.94.69,3.61.69h.83c1.17,0,2.1-.14,2.78-.42.68-.28,1.2-.91,1.57-1.9.25-.68.48-1.37.69-2.08.21-.71.35-1.4.42-2.08,1.42,2.1,3.31,3.78,5.69,5.04,2.37,1.26,4.92,1.9,7.63,1.9,3.45,0,6.51-.99,9.16-2.96,2.65-1.97,4.72-4.82,6.2-8.56Zm-11.89-1.9c-1.45,2.71-3.62,4.07-6.52,4.07-1.91,0-3.65-.57-5.23-1.71-1.57-1.14-2.97-2.6-4.21-4.39v-22.2c1.05-.8,2.27-1.45,3.65-1.94,1.39-.49,2.91-.74,4.58-.74,3.33,0,5.81,1.29,7.45,3.88,1.63,2.59,2.45,6.38,2.45,11.38s-.73,8.94-2.17,11.66Z"></path><path class="cls-2" d="m179.62,80.98c-.18-.86-.36-2.13-.51-3.79-.16-1.67-.23-3.98-.23-6.94v-18.5c0-2.22-.37-4.25-1.11-6.1-.74-1.85-1.88-3.45-3.42-4.81-1.54-1.36-3.51-2.39-5.92-3.1-2.4-.71-5.27-1.06-8.6-1.06-2.1,0-4.21.17-6.34.51-2.13.34-4.05.82-5.78,1.43-1.73.62-3.11,1.28-4.16,1.99-1.05.71-1.57,1.43-1.57,2.17,0,.43.09,1,.28,1.71.18.71.43,1.42.74,2.13.31.71.65,1.31,1.02,1.8.37.49.74.74,1.11.74.55,0,1.46-.26,2.73-.79,1.26-.52,2.84-1.05,4.72-1.57,1.88-.52,4.02-.79,6.43-.79,1.97,0,3.56.26,4.76.79,1.2.52,2.07,1.25,2.59,2.17.52.92.79,2.04.79,3.33v3.33c-5.8,0-10.53.45-14.2,1.34-3.67.89-6.49,2.13-8.46,3.7-1.97,1.57-3.35,3.39-4.12,5.46-.77,2.07-1.16,4.27-1.16,6.61,0,4.07,1.2,7.35,3.61,9.85,2.4,2.5,6.01,3.75,10.82,3.75,2.65,0,4.95-.43,6.89-1.29,1.94-.86,3.52-1.85,4.72-2.96,1.2-1.11,2.08-2,2.64-2.68.18,1.05.38,2.07.6,3.05.22.99.52,1.79.92,2.41.4.62,1.03.92,1.9.92.56,0,1.31-.05,2.27-.14.95-.09,1.91-.24,2.87-.46.96-.22,1.77-.49,2.45-.83.68-.34,1.02-.75,1.02-1.25,0-.55-.09-1.26-.28-2.13Zm-12.49-10.08c-.68,1.11-1.54,2.13-2.59,3.05-1.05.92-2.22,1.67-3.52,2.22s-2.71.83-4.26.83c-1.91,0-3.35-.48-4.3-1.43-.96-.96-1.43-2.27-1.43-3.93,0-1.29.28-2.45.83-3.47.55-1.02,1.46-1.83,2.73-2.45,1.26-.61,2.91-1.08,4.95-1.39,2.03-.31,4.56-.46,7.58-.46v7.03Z"></path><path class="cls-2" d="m76.07,77.19c-.16-1.67-.23-3.98-.23-6.94v-18.5c0-2.22-.37-4.25-1.11-6.1-.74-1.85-1.88-3.45-3.42-4.81-1.54-1.36-3.51-2.39-5.92-3.1-2.4-.71-5.27-1.06-8.6-1.06-2.1,0-4.21.17-6.34.51-2.13.34-4.05.82-5.78,1.43-1.73.62-3.11,1.28-4.16,1.99-1.05.71-1.57,1.43-1.57,2.17,0,.43.09,1,.28,1.71.18.71.43,1.42.74,2.13.31.71.65,1.31,1.02,1.8.37.49.74.74,1.11.74.56,0,1.46-.26,2.73-.79,1.26-.52,2.84-1.05,4.72-1.57,1.88-.52,4.02-.79,6.43-.79,1.97,0,3.56.26,4.76.79,1.2.52,2.07,1.25,2.59,2.17.52.92.79,2.04.79,3.33v3.33c-5.8,0-10.53.45-14.2,1.34-3.67.89-6.49,2.13-8.46,3.7-1.97,1.57-3.35,3.39-4.12,5.46-.77,2.07-1.16,4.27-1.16,6.61,0,4.07,1.2,7.35,3.61,9.85,2.4,2.5,6.01,3.75,10.82,3.75,2.65,0,4.95-.43,6.89-1.29,1.94-.86,3.52-1.85,4.72-2.96,1.2-1.11,2.08-2,2.64-2.68.18,1.05.39,2.07.6,3.05.22.99.52,1.79.92,2.41.4.62,1.03.92,1.9.92.56,0,1.31-.05,2.27-.14.95-.09,1.91-.24,2.87-.46.96-.22,1.77-.49,2.45-.83.68-.34,1.02-.75,1.02-1.25,0-.55-.09-1.26-.28-2.13-.18-.86-.35-2.13-.51-3.79Zm-11.98-6.29c-.68,1.11-1.54,2.13-2.59,3.05-1.05.92-2.22,1.67-3.52,2.22s-2.71.83-4.26.83c-1.91,0-3.35-.48-4.3-1.43-.96-.96-1.43-2.27-1.43-3.93,0-1.29.28-2.45.83-3.47.55-1.02,1.46-1.83,2.73-2.45,1.26-.61,2.91-1.08,4.95-1.39,2.03-.31,4.56-.46,7.58-.46v7.03Z"></path><path class="cls-2" d="m7.17,85.19c.77.46,2.02.69,3.75.69h1.94c1.79,0,3.07-.23,3.84-.69.77-.46,1.16-1.12,1.16-1.99v-23.07h9.22c1.66,0,2.5-1.33,2.5-3.98v-1.39c0-2.65-.83-3.98-2.5-3.98h-9.22v-12.28c0-8.87,4.09-11.17,7.57-11.85,1.45-.28,3.4,0,4.71.68,1.4.73,2.54,2.01,2.72,2.12.31.2.76.18,1.33-.04.58-.22,1.18-.55,1.82-.99.64-.44,1.22-.91,1.76-1.41.53-.5.91-.94,1.14-1.3.39-.63.33-1.52-.18-2.68-.51-1.16-6.35-7.43-15.99-7.01-9.64.42-16.72,7.94-16.72,18.57v16.19s-3.6,0-3.6,0c-1.6,0-2.4,1.33-2.4,3.98v1.39c0,2.65.8,3.98,2.4,3.98h3.61v23.07c0,.86.38,1.53,1.16,1.99Z"></path></svg> 